<?xml version="1.0" encoding="UTF-8"?>
<svg xmlns="http://www.w3.org/2000/svg" width="848" height="848" viewBox="0 0 848 847" version="1.2">
  <path d="M 394.943 1.074 C 319.091 6.223, 242.904 33.067, 181.244 76.372 C 141.567 104.237, 104.237 141.567, 76.372 181.244 C 11.612 273.453, -13.530 390.668, 7.569 502 C 18.657 560.505, 42.786 617.934, 76.372 665.756 C 104.237 705.433, 141.567 742.763, 181.244 770.628 C 273.560 835.463, 391.201 860.619, 503 839.431 C 561.505 828.343, 618.934 804.214, 666.756 770.628 C 706.433 742.763, 743.763 705.433, 771.628 665.756 C 814.792 604.296, 842.993 524.265, 846.699 452.714 C 847.034 446.231, 847.689 440.692, 848.154 440.405 C 848.620 440.117, 849 432.007, 849 422.382 C 849 412.757, 848.618 405.118, 848.151 405.407 C 847.684 405.695, 847.029 400.659, 846.695 394.216 C 842.993 322.737, 814.774 242.678, 771.628 181.244 C 743.763 141.567, 706.433 104.237, 666.756 76.372 C 588.778 21.607, 491.096 -5.453, 394.943 1.074 M 424.676 89.029 C 423.123 89.490, 416.823 93.654, 410.676 98.283 C 378.314 122.655, 338.196 140.064, 295.103 148.433 C 266.762 153.937, 260.676 154.458, 224.500 154.480 C 188.987 154.501, 179.772 153.805, 150.259 148.872 C 138.323 146.877, 137.926 146.872, 134.287 148.663 C 128.031 151.743, 127.232 154.262, 126.091 174.502 C 125.532 184.401, 124.763 209.648, 124.382 230.607 L 123.688 268.715 131.677 285.107 C 167.319 358.246, 230.061 428.096, 314.500 488.641 C 399.243 549.404, 493.448 588.853, 582 600.659 C 596.376 602.576, 645.856 603.298, 655.005 601.726 C 659.380 600.973, 659.643 600.715, 664.169 592.726 C 691.236 544.946, 710.432 477.954, 720.396 396.500 C 723.973 367.253, 723.976 367.227, 725.978 340.275 L 727.818 315.500 725.240 311.500 C 720.069 303.477, 704.392 283.321, 692.936 269.967 C 658.056 229.304, 618.224 193.750, 569.500 159.788 L 551.500 147.242 538.500 143.720 C 501.031 133.567, 464.464 115.510, 437 93.598 C 430.753 88.614, 428.676 87.844, 424.676 89.029 M 702.500 149.019 C 682.202 152.828, 653.113 155.125, 629.249 154.801 C 617.011 154.636, 606.999 154.751, 606.999 155.057 C 607 155.364, 609.813 157.681, 613.250 160.207 C 624.333 168.352, 652.272 192.086, 669.111 207.662 C 685.975 223.260, 706.502 244.482, 720.462 260.750 C 724.827 265.837, 728.705 270, 729.079 270 C 730.040 270, 729.222 198.274, 728.003 175.688 C 726.928 155.775, 726.109 152.428, 721.585 149.464 C 717.943 147.077, 713.410 146.972, 702.500 149.019 M 134.380 406 C 134.661 407.375, 135.167 410.750, 135.505 413.500 C 139.834 448.755, 150.454 495.372, 161.817 529 C 177.265 574.714, 191.825 600.924, 221.670 636.747 C 282.539 709.808, 352.755 772.167, 410.592 804.530 C 426.268 813.302, 427.290 813.400, 439.089 807.265 C 475.802 788.174, 522.557 752.004, 567.224 708.139 C 584.479 691.193, 617.833 655.593, 618.742 653.151 C 618.876 652.793, 611.226 652.393, 601.742 652.263 C 503.587 650.915, 387.512 610.921, 288 544.162 C 233.618 507.678, 184.758 464.261, 147.128 418.981 C 133.619 402.726, 133.734 402.844, 134.380 406 M 0.413 423.500 C 0.414 433.400, 0.564 437.315, 0.746 432.199 C 0.928 427.084, 0.927 418.984, 0.744 414.199 C 0.561 409.415, 0.412 413.600, 0.413 423.500" stroke="none" fill="#fbfbfb" fill-rule="evenodd"></path>
  <path d="M 424.676 89.029 C 423.123 89.490, 416.823 93.654, 410.676 98.283 C 378.314 122.655, 338.196 140.064, 295.103 148.433 C 266.762 153.937, 260.676 154.458, 224.500 154.480 C 188.987 154.501, 179.772 153.805, 150.259 148.872 C 138.323 146.877, 137.926 146.872, 134.287 148.663 C 128.031 151.743, 127.232 154.262, 126.091 174.502 C 125.532 184.401, 124.763 209.648, 124.382 230.607 L 123.688 268.715 131.677 285.107 C 167.319 358.246, 230.061 428.096, 314.500 488.641 C 399.243 549.404, 493.448 588.853, 582 600.659 C 596.376 602.576, 645.856 603.298, 655.005 601.726 C 659.380 600.973, 659.643 600.715, 664.169 592.726 C 691.236 544.946, 710.432 477.954, 720.396 396.500 C 723.973 367.253, 723.976 367.227, 725.978 340.275 L 727.818 315.500 725.240 311.500 C 720.069 303.477, 704.392 283.321, 692.936 269.967 C 658.056 229.304, 618.224 193.750, 569.500 159.788 L 551.500 147.242 538.500 143.720 C 501.031 133.567, 464.464 115.510, 437 93.598 C 430.753 88.614, 428.676 87.844, 424.676 89.029 M 702.500 149.019 C 682.202 152.828, 653.113 155.125, 629.249 154.801 C 617.011 154.636, 606.999 154.751, 606.999 155.057 C 607 155.364, 609.813 157.681, 613.250 160.207 C 624.333 168.352, 652.272 192.086, 669.111 207.662 C 685.975 223.260, 706.502 244.482, 720.462 260.750 C 724.827 265.837, 728.705 270, 729.079 270 C 730.040 270, 729.222 198.274, 728.003 175.688 C 726.928 155.775, 726.109 152.428, 721.585 149.464 C 717.943 147.077, 713.410 146.972, 702.500 149.019 M 134.380 406 C 134.661 407.375, 135.167 410.750, 135.505 413.500 C 139.834 448.755, 150.454 495.372, 161.817 529 C 177.265 574.714, 191.825 600.924, 221.670 636.747 C 282.539 709.808, 352.755 772.167, 410.592 804.530 C 426.268 813.302, 427.290 813.400, 439.089 807.265 C 475.802 788.174, 522.557 752.004, 567.224 708.139 C 584.479 691.193, 617.833 655.593, 618.742 653.151 C 618.876 652.793, 611.226 652.393, 601.742 652.263 C 503.587 650.915, 387.512 610.921, 288 544.162 C 233.618 507.678, 184.758 464.261, 147.128 418.981 C 133.619 402.726, 133.734 402.844, 134.380 406" stroke="none" fill="#1b57a4" fill-rule="evenodd"></path>
  <title>HomeFortress</title>
</svg>
